<mxfile host="app.diagrams.net" agent="Mozilla/5.0 (Windows NT 10.0; Win64; x64; rv:109.0) Gecko/20100101 Firefox/127.0" version="24.7.12">
  <diagram name="Page-1" id="rTnhSF7wG8ZI9zgHeMHo">
    <mxGraphModel dx="1432" dy="777" grid="1" gridSize="10" guides="1" tooltips="1" connect="1" arrows="1" fold="1" page="1" pageScale="1" pageWidth="850" pageHeight="1100" math="0" shadow="0">
      <root>
        <mxCell id="0" />
        <mxCell id="1" parent="0" />
        <mxCell id="_ZRvXiVYtUgfMEzg1t3W-1" value="Log in" style="ellipse;whiteSpace=wrap;html=1;" vertex="1" parent="1">
          <mxGeometry x="180" y="380" width="70" height="50" as="geometry" />
        </mxCell>
        <mxCell id="_ZRvXiVYtUgfMEzg1t3W-2" value="Doctors" style="shape=umlActor;verticalLabelPosition=bottom;verticalAlign=top;html=1;outlineConnect=0;fillColor=#dae8fc;strokeColor=#6c8ebf;" vertex="1" parent="1">
          <mxGeometry x="60" y="600" width="30" height="60" as="geometry" />
        </mxCell>
        <mxCell id="_ZRvXiVYtUgfMEzg1t3W-3" value="Administrator" style="shape=umlActor;verticalLabelPosition=bottom;verticalAlign=top;html=1;outlineConnect=0;fillColor=#dae8fc;strokeColor=#6c8ebf;" vertex="1" parent="1">
          <mxGeometry x="60" y="340" width="30" height="60" as="geometry" />
        </mxCell>
        <mxCell id="_ZRvXiVYtUgfMEzg1t3W-4" value="Staff" style="shape=umlActor;verticalLabelPosition=bottom;verticalAlign=top;html=1;outlineConnect=0;fillColor=#dae8fc;strokeColor=#6c8ebf;" vertex="1" parent="1">
          <mxGeometry x="60" y="210" width="30" height="60" as="geometry" />
        </mxCell>
        <mxCell id="_ZRvXiVYtUgfMEzg1t3W-5" value="Patients" style="shape=umlActor;verticalLabelPosition=bottom;verticalAlign=top;html=1;outlineConnect=0;fillColor=#dae8fc;strokeColor=#6c8ebf;" vertex="1" parent="1">
          <mxGeometry x="60" y="470" width="30" height="60" as="geometry" />
        </mxCell>
        <mxCell id="_ZRvXiVYtUgfMEzg1t3W-7" value="&lt;div&gt;Log out&lt;/div&gt;" style="ellipse;whiteSpace=wrap;html=1;" vertex="1" parent="1">
          <mxGeometry x="180" y="500" width="70" height="50" as="geometry" />
        </mxCell>
        <mxCell id="_ZRvXiVYtUgfMEzg1t3W-8" value="Enter username" style="ellipse;whiteSpace=wrap;html=1;" vertex="1" parent="1">
          <mxGeometry x="345" y="330" width="70" height="50" as="geometry" />
        </mxCell>
        <mxCell id="_ZRvXiVYtUgfMEzg1t3W-10" value="Enter password" style="ellipse;whiteSpace=wrap;html=1;" vertex="1" parent="1">
          <mxGeometry x="310" y="460" width="70" height="50" as="geometry" />
        </mxCell>
        <mxCell id="_ZRvXiVYtUgfMEzg1t3W-11" value="&lt;div&gt;Authentication&lt;/div&gt;" style="ellipse;whiteSpace=wrap;html=1;" vertex="1" parent="1">
          <mxGeometry x="460" y="410" width="100" height="60" as="geometry" />
        </mxCell>
        <mxCell id="_ZRvXiVYtUgfMEzg1t3W-12" value="" style="endArrow=none;html=1;rounded=0;exitX=0.5;exitY=0.5;exitDx=0;exitDy=0;exitPerimeter=0;" edge="1" parent="1" source="_ZRvXiVYtUgfMEzg1t3W-4" target="_ZRvXiVYtUgfMEzg1t3W-1">
          <mxGeometry width="50" height="50" relative="1" as="geometry">
            <mxPoint x="170" y="330" as="sourcePoint" />
            <mxPoint x="450" y="380" as="targetPoint" />
          </mxGeometry>
        </mxCell>
        <mxCell id="_ZRvXiVYtUgfMEzg1t3W-14" value="" style="endArrow=open;html=1;rounded=0;exitX=1;exitY=1;exitDx=0;exitDy=0;entryX=0.014;entryY=0.3;entryDx=0;entryDy=0;entryPerimeter=0;endFill=0;" edge="1" parent="1" source="_ZRvXiVYtUgfMEzg1t3W-1" target="_ZRvXiVYtUgfMEzg1t3W-10">
          <mxGeometry width="50" height="50" relative="1" as="geometry">
            <mxPoint x="260" y="415" as="sourcePoint" />
            <mxPoint x="357" y="405" as="targetPoint" />
          </mxGeometry>
        </mxCell>
        <mxCell id="_ZRvXiVYtUgfMEzg1t3W-19" value="&amp;lt;include&amp;gt;" style="edgeLabel;html=1;align=center;verticalAlign=middle;resizable=0;points=[];" vertex="1" connectable="0" parent="_ZRvXiVYtUgfMEzg1t3W-14">
          <mxGeometry x="-0.2692" y="1" relative="1" as="geometry">
            <mxPoint x="-1" as="offset" />
          </mxGeometry>
        </mxCell>
        <mxCell id="_ZRvXiVYtUgfMEzg1t3W-17" value="" style="endArrow=open;html=1;rounded=0;exitX=1;exitY=0.5;exitDx=0;exitDy=0;entryX=0;entryY=0.5;entryDx=0;entryDy=0;endFill=0;" edge="1" parent="1" source="_ZRvXiVYtUgfMEzg1t3W-10" target="_ZRvXiVYtUgfMEzg1t3W-11">
          <mxGeometry width="50" height="50" relative="1" as="geometry">
            <mxPoint x="250" y="433" as="sourcePoint" />
            <mxPoint x="341" y="495" as="targetPoint" />
          </mxGeometry>
        </mxCell>
        <mxCell id="_ZRvXiVYtUgfMEzg1t3W-18" value="&amp;lt;include&amp;gt;" style="edgeLabel;html=1;align=center;verticalAlign=middle;resizable=0;points=[];" vertex="1" connectable="0" parent="_ZRvXiVYtUgfMEzg1t3W-17">
          <mxGeometry x="-0.1591" y="-1" relative="1" as="geometry">
            <mxPoint as="offset" />
          </mxGeometry>
        </mxCell>
        <mxCell id="_ZRvXiVYtUgfMEzg1t3W-20" value="" style="endArrow=none;html=1;rounded=0;entryX=0.371;entryY=1.06;entryDx=0;entryDy=0;entryPerimeter=0;exitX=0.686;exitY=0.04;exitDx=0;exitDy=0;exitPerimeter=0;startArrow=block;startFill=0;" edge="1" parent="1" source="_ZRvXiVYtUgfMEzg1t3W-10" target="_ZRvXiVYtUgfMEzg1t3W-8">
          <mxGeometry width="50" height="50" relative="1" as="geometry">
            <mxPoint x="340" y="500" as="sourcePoint" />
            <mxPoint x="390" y="450" as="targetPoint" />
          </mxGeometry>
        </mxCell>
        <mxCell id="_ZRvXiVYtUgfMEzg1t3W-22" value="" style="endArrow=none;html=1;rounded=0;entryX=0.5;entryY=0;entryDx=0;entryDy=0;exitX=0.414;exitY=1.06;exitDx=0;exitDy=0;exitPerimeter=0;startArrow=block;startFill=0;" edge="1" parent="1" source="_ZRvXiVYtUgfMEzg1t3W-1" target="_ZRvXiVYtUgfMEzg1t3W-7">
          <mxGeometry width="50" height="50" relative="1" as="geometry">
            <mxPoint x="368" y="452" as="sourcePoint" />
            <mxPoint x="401" y="393" as="targetPoint" />
          </mxGeometry>
        </mxCell>
        <mxCell id="_ZRvXiVYtUgfMEzg1t3W-23" value="" style="endArrow=none;html=1;rounded=0;entryX=0;entryY=0.5;entryDx=0;entryDy=0;exitX=0.5;exitY=0.5;exitDx=0;exitDy=0;exitPerimeter=0;" edge="1" parent="1" source="_ZRvXiVYtUgfMEzg1t3W-3" target="_ZRvXiVYtUgfMEzg1t3W-1">
          <mxGeometry width="50" height="50" relative="1" as="geometry">
            <mxPoint x="400" y="430" as="sourcePoint" />
            <mxPoint x="450" y="380" as="targetPoint" />
          </mxGeometry>
        </mxCell>
        <mxCell id="_ZRvXiVYtUgfMEzg1t3W-24" value="" style="endArrow=none;html=1;rounded=0;exitX=0.5;exitY=0.5;exitDx=0;exitDy=0;exitPerimeter=0;entryX=0.071;entryY=0.68;entryDx=0;entryDy=0;entryPerimeter=0;" edge="1" parent="1" source="_ZRvXiVYtUgfMEzg1t3W-5" target="_ZRvXiVYtUgfMEzg1t3W-1">
          <mxGeometry width="50" height="50" relative="1" as="geometry">
            <mxPoint x="85" y="380" as="sourcePoint" />
            <mxPoint x="260" y="410" as="targetPoint" />
          </mxGeometry>
        </mxCell>
        <mxCell id="_ZRvXiVYtUgfMEzg1t3W-25" value="" style="endArrow=none;html=1;rounded=0;exitX=0.5;exitY=0.5;exitDx=0;exitDy=0;exitPerimeter=0;entryX=0;entryY=1;entryDx=0;entryDy=0;" edge="1" parent="1" source="_ZRvXiVYtUgfMEzg1t3W-2" target="_ZRvXiVYtUgfMEzg1t3W-1">
          <mxGeometry width="50" height="50" relative="1" as="geometry">
            <mxPoint x="85" y="510" as="sourcePoint" />
            <mxPoint x="280" y="430" as="targetPoint" />
          </mxGeometry>
        </mxCell>
        <mxCell id="_ZRvXiVYtUgfMEzg1t3W-26" value="System" style="shape=umlActor;verticalLabelPosition=bottom;verticalAlign=top;html=1;outlineConnect=0;fillColor=#dae8fc;strokeColor=#6c8ebf;" vertex="1" parent="1">
          <mxGeometry x="670" y="375" width="30" height="60" as="geometry" />
        </mxCell>
        <mxCell id="_ZRvXiVYtUgfMEzg1t3W-27" value="" style="endArrow=none;html=1;rounded=0;entryX=0.5;entryY=0.5;entryDx=0;entryDy=0;entryPerimeter=0;exitX=1;exitY=0.5;exitDx=0;exitDy=0;" edge="1" parent="1" source="_ZRvXiVYtUgfMEzg1t3W-11" target="_ZRvXiVYtUgfMEzg1t3W-26">
          <mxGeometry width="50" height="50" relative="1" as="geometry">
            <mxPoint x="400" y="430" as="sourcePoint" />
            <mxPoint x="450" y="380" as="targetPoint" />
          </mxGeometry>
        </mxCell>
        <mxCell id="_ZRvXiVYtUgfMEzg1t3W-28" value="Log in/out" style="swimlane;whiteSpace=wrap;html=1;" vertex="1" parent="1">
          <mxGeometry x="145" y="150" width="465" height="540" as="geometry" />
        </mxCell>
      </root>
    </mxGraphModel>
  </diagram>
</mxfile>
